#!OML:ASF I:\Actors\actors\Patient Classification 2\Patient 1\Session 1\actor1.ASF
:FULLY-SPECIFIED
:DEGREES
739
root 0.19219 18.8121 4.2061 24.0725 -4.81857 -2.6698
lowerback 52.3515 3.23276 -14.39
upperback 7.42223 -5.21681 -7.28555
thorax -11.9021 -1.73153 0.67276
lowerneck -27.9756 2.89379 3.84468
upperneck 11.9395 1.63219 4.44306
head 8.19013 1.48268 1.16308
rclavicle -2.54444e-014 -1.66979e-014
rhumerus -13.5171 36.873 -79.5618
rradius 92.6322
rwrist -85.72
rhand -32.2469 -68.7334
rfingers 7.12502
rthumb -5.48713 1178.64
lclavicle -2.54444e-014 -1.66979e-014
lhumerus 36.8385 9.00643 92.3348
lradius 41.7611
lwrist 81.0396
lhand -33.8906 -9.34314
lfingers 7.12502
lthumb -7.07393 20.5187
rfemur 0 0 0
rtibia 0
rfoot 0 0
rtoes 0
lfemur -40.3162 5.56252 -15.2933
ltibia 31.6839
lfoot -16.2051 9.99036
ltoes -53.6119
740
root 0.190123 18.8167 4.21541 23.9231 -4.67085 -2.66249
lowerback 52.3565 3.08042 -14.2952
upperback 7.4119 -5.34595 -7.30201
thorax -11.9265 -1.78573 0.67617
lowerneck -28.0798 2.99662 3.97986
upperneck 12.05 1.72234 4.37052
head 8.2454 1.52767 1.13382
rclavicle 6.36111e-015 1.98785e-014
rhumerus -13.474 37.4074 -79.4903
rradius 92.4543
rwrist -85.7965
rhand -32.4794 -68.5892
rfingers 7.12502
rthumb -5.71161 1178.49
lclavicle 6.36111e-015 1.98785e-014
lhumerus 36.7466 9.09048 92.2211
lradius 41.6911
lwrist 81.113
lhand -34.1592 -9.79354
lfingers 7.12502
lthumb -7.33324 20.0594
rfemur 0 0 0
rtibia 0
rfoot 0 0
rtoes 0
lfemur -40.0849 5.40061 -15.216
ltibia 31.5718
lfoot -16.1994 10.0541
ltoes -53.5574
741
root 0.187758 18.8218 4.22328 23.7578 -4.52451 -2.69348
lowerback 52.4691 2.96514 -14.1455
upperback 7.36868 -5.42531 -7.29688
thorax -12.01 -1.81534 0.653651
lowerneck -28.2294 3.06236 4.07657
upperneck 12.1597 1.75515 4.39424
head 8.30741 1.55506 1.13623
rclavicle 1.59028e-014 -1.59028e-014
rhumerus -13.406 37.8013 -79.5072
rradius 92.2094
rwrist -85.7056
rhand -32.7221 -68.1709
rfingers 7.12502
rthumb -5.94589 1178.07
lclavicle 1.59028e-014 -1.59028e-014
lhumerus 36.7443 9.28027 92.4719
lradius 41.6138
lwrist 80.9728
lhand -34.25 -10.2934
lfingers 7.12502
lthumb -7.4209 19.5564
rfemur 0 0 0
rtibia 0
rfoot 0 0
rtoes 0
lfemur -39.8418 5.37342 -15.1474
ltibia 31.4554
lfoot -16.1051 10.005
ltoes -53.4947
742
root 0.187047 18.8284 4.22849 23.5895 -4.42379 -2.65492
lowerback 52.5831 2.85778 -14.0318
upperback 7.33492 -5.51878 -7.32419
thorax -12.0811 -1.84991 0.615847
lowerneck -28.3682 3.15589 4.24083
upperneck 12.2166 1.7988 4.43802
head 8.3503 1.59215 1.13586
rclavicle -6.36111e-015 2.38542e-015
rhumerus -13.1278 38.0522 -79.4965
rradius 91.88
rwrist -85.5943
rhand -32.441 -68.1751
rfingers 7.12502
rthumb -5.67452 1178.08
lclavicle -6.36111e-015 2.38542e-015
lhumerus 36.7749 9.47342 92.7193
lradius 41.5545
lwrist 80.7423
lhand -34.012 -10.3753
lfingers 7.12502
lthumb -7.19117 19.4825
rfemur 0 0 0
rtibia 0
rfoot 0 0
rtoes 0
lfemur -39.5928 5.38112 -15.1872
ltibia 31.3281
lfoot -16.0163 9.90878
ltoes -53.4888
743
root 0.186466 18.8352 4.2318 23.474 -4.33589 -2.57392
lowerback 52.6085 2.73842 -13.9402
upperback 7.31458 -5.61613 -7.33695
thorax -12.1204 -1.88909 0.60904
lowerneck -28.3824 3.22463 4.40777
upperneck 12.1238 1.83447 4.42275
head 8.32223 1.6137 1.10889
rclavicle -7.63333e-014 -3.18055e-015
rhumerus -12.7306 38.2813 -79.4886
rradius 91.4846
rwrist -85.6078
rhand -32.1471 -68.2799
rfingers 7.12502
rthumb -5.39072 1178.19
lclavicle -7.63333e-014 -3.18055e-015
lhumerus 36.7947 9.56758 92.7813
lradius 41.5536
lwrist 80.5199
lhand -33.8493 -10.2615
lfingers 7.12502
lthumb -7.0341 19.6016
rfemur 0 0 0
rtibia 0
rfoot 0 0
rtoes 0
lfemur -39.3999 5.29695 -15.2392
ltibia 31.1883
lfoot -15.9564 9.87291
ltoes -53.4352
